<mxfile host="app.diagrams.net" modified="2023-10-04T03:13:05.296Z" agent="Mozilla/5.0 (Windows NT 10.0; Win64; x64) AppleWebKit/537.36 (KHTML, like Gecko) Chrome/117.0.0.0 Safari/537.36" etag="jeBvtJ0Gs-YD2DomFYQr" version="22.0.0" type="github">
  <diagram id="C5RBs43oDa-KdzZeNtuy" name="Page-1">
    <mxGraphModel dx="1740" dy="1661" grid="1" gridSize="10" guides="1" tooltips="1" connect="1" arrows="1" fold="1" page="1" pageScale="1" pageWidth="827" pageHeight="1169" math="0" shadow="0">
      <root>
        <mxCell id="WIyWlLk6GJQsqaUBKTNV-0" />
        <mxCell id="WIyWlLk6GJQsqaUBKTNV-1" parent="WIyWlLk6GJQsqaUBKTNV-0" />
        <mxCell id="idnOj9-_htJ4sINFF72s-0" value="Journal" style="swimlane;fontStyle=1;align=center;verticalAlign=top;childLayout=stackLayout;horizontal=1;startSize=26;horizontalStack=0;resizeParent=1;resizeParentMax=0;resizeLast=0;collapsible=1;marginBottom=0;whiteSpace=wrap;html=1;" vertex="1" parent="WIyWlLk6GJQsqaUBKTNV-1">
          <mxGeometry x="580" y="310" width="160" height="120" as="geometry" />
        </mxCell>
        <mxCell id="idnOj9-_htJ4sINFF72s-52" value="entry list (separate class)" style="text;strokeColor=none;fillColor=none;align=left;verticalAlign=top;spacingLeft=4;spacingRight=4;overflow=hidden;rotatable=0;points=[[0,0.5],[1,0.5]];portConstraint=eastwest;whiteSpace=wrap;html=1;" vertex="1" parent="idnOj9-_htJ4sINFF72s-0">
          <mxGeometry y="26" width="160" height="24" as="geometry" />
        </mxCell>
        <mxCell id="idnOj9-_htJ4sINFF72s-34" value="list&amp;lt;prompts&amp;gt; prompts" style="text;strokeColor=none;fillColor=none;align=left;verticalAlign=top;spacingLeft=4;spacingRight=4;overflow=hidden;rotatable=0;points=[[0,0.5],[1,0.5]];portConstraint=eastwest;whiteSpace=wrap;html=1;" vertex="1" parent="idnOj9-_htJ4sINFF72s-0">
          <mxGeometry y="50" width="160" height="24" as="geometry" />
        </mxCell>
        <mxCell id="idnOj9-_htJ4sINFF72s-2" value="" style="line;strokeWidth=1;fillColor=none;align=left;verticalAlign=middle;spacingTop=-1;spacingLeft=3;spacingRight=3;rotatable=0;labelPosition=right;points=[];portConstraint=eastwest;strokeColor=inherit;" vertex="1" parent="idnOj9-_htJ4sINFF72s-0">
          <mxGeometry y="74" width="160" height="8" as="geometry" />
        </mxCell>
        <mxCell id="idnOj9-_htJ4sINFF72s-35" value="write(entry)" style="text;strokeColor=none;fillColor=none;align=left;verticalAlign=top;spacingLeft=4;spacingRight=4;overflow=hidden;rotatable=0;points=[[0,0.5],[1,0.5]];portConstraint=eastwest;whiteSpace=wrap;html=1;" vertex="1" parent="idnOj9-_htJ4sINFF72s-0">
          <mxGeometry y="82" width="160" height="38" as="geometry" />
        </mxCell>
        <mxCell id="idnOj9-_htJ4sINFF72s-7" value="" style="edgeStyle=orthogonalEdgeStyle;rounded=0;orthogonalLoop=1;jettySize=auto;html=1;" edge="1" parent="WIyWlLk6GJQsqaUBKTNV-1" source="idnOj9-_htJ4sINFF72s-5" target="idnOj9-_htJ4sINFF72s-6">
          <mxGeometry relative="1" as="geometry" />
        </mxCell>
        <mxCell id="idnOj9-_htJ4sINFF72s-9" value="" style="edgeStyle=orthogonalEdgeStyle;rounded=0;orthogonalLoop=1;jettySize=auto;html=1;" edge="1" parent="WIyWlLk6GJQsqaUBKTNV-1" source="idnOj9-_htJ4sINFF72s-5" target="idnOj9-_htJ4sINFF72s-8">
          <mxGeometry relative="1" as="geometry" />
        </mxCell>
        <mxCell id="idnOj9-_htJ4sINFF72s-11" value="" style="edgeStyle=orthogonalEdgeStyle;rounded=0;orthogonalLoop=1;jettySize=auto;html=1;" edge="1" parent="WIyWlLk6GJQsqaUBKTNV-1" source="idnOj9-_htJ4sINFF72s-5" target="idnOj9-_htJ4sINFF72s-10">
          <mxGeometry relative="1" as="geometry" />
        </mxCell>
        <mxCell id="idnOj9-_htJ4sINFF72s-13" value="" style="edgeStyle=orthogonalEdgeStyle;rounded=0;orthogonalLoop=1;jettySize=auto;html=1;" edge="1" parent="WIyWlLk6GJQsqaUBKTNV-1" source="idnOj9-_htJ4sINFF72s-5" target="idnOj9-_htJ4sINFF72s-12">
          <mxGeometry relative="1" as="geometry" />
        </mxCell>
        <mxCell id="idnOj9-_htJ4sINFF72s-5" value="Select from menu" style="html=1;whiteSpace=wrap;" vertex="1" parent="WIyWlLk6GJQsqaUBKTNV-1">
          <mxGeometry x="160" y="60" width="110" height="50" as="geometry" />
        </mxCell>
        <mxCell id="idnOj9-_htJ4sINFF72s-15" value="" style="edgeStyle=orthogonalEdgeStyle;rounded=0;orthogonalLoop=1;jettySize=auto;html=1;" edge="1" parent="WIyWlLk6GJQsqaUBKTNV-1" source="idnOj9-_htJ4sINFF72s-6" target="idnOj9-_htJ4sINFF72s-14">
          <mxGeometry relative="1" as="geometry" />
        </mxCell>
        <mxCell id="idnOj9-_htJ4sINFF72s-21" value="" style="edgeStyle=orthogonalEdgeStyle;rounded=0;orthogonalLoop=1;jettySize=auto;html=1;" edge="1" parent="WIyWlLk6GJQsqaUBKTNV-1" source="idnOj9-_htJ4sINFF72s-6" target="idnOj9-_htJ4sINFF72s-20">
          <mxGeometry relative="1" as="geometry" />
        </mxCell>
        <mxCell id="idnOj9-_htJ4sINFF72s-6" value="1: Prompt" style="html=1;whiteSpace=wrap;" vertex="1" parent="WIyWlLk6GJQsqaUBKTNV-1">
          <mxGeometry x="350" y="60" width="110" height="50" as="geometry" />
        </mxCell>
        <mxCell id="idnOj9-_htJ4sINFF72s-25" value="" style="edgeStyle=orthogonalEdgeStyle;rounded=0;orthogonalLoop=1;jettySize=auto;html=1;" edge="1" parent="WIyWlLk6GJQsqaUBKTNV-1" source="idnOj9-_htJ4sINFF72s-8" target="idnOj9-_htJ4sINFF72s-24">
          <mxGeometry relative="1" as="geometry" />
        </mxCell>
        <mxCell id="idnOj9-_htJ4sINFF72s-8" value="2: Display Entries" style="html=1;whiteSpace=wrap;" vertex="1" parent="WIyWlLk6GJQsqaUBKTNV-1">
          <mxGeometry x="160" y="190" width="110" height="50" as="geometry" />
        </mxCell>
        <mxCell id="idnOj9-_htJ4sINFF72s-29" value="" style="edgeStyle=orthogonalEdgeStyle;rounded=0;orthogonalLoop=1;jettySize=auto;html=1;" edge="1" parent="WIyWlLk6GJQsqaUBKTNV-1" source="idnOj9-_htJ4sINFF72s-10" target="idnOj9-_htJ4sINFF72s-28">
          <mxGeometry relative="1" as="geometry" />
        </mxCell>
        <mxCell id="idnOj9-_htJ4sINFF72s-10" value="3: Save to file&lt;br&gt;4: Load from file" style="html=1;whiteSpace=wrap;" vertex="1" parent="WIyWlLk6GJQsqaUBKTNV-1">
          <mxGeometry x="-30" y="60" width="110" height="50" as="geometry" />
        </mxCell>
        <mxCell id="idnOj9-_htJ4sINFF72s-33" value="" style="edgeStyle=orthogonalEdgeStyle;rounded=0;orthogonalLoop=1;jettySize=auto;html=1;" edge="1" parent="WIyWlLk6GJQsqaUBKTNV-1" source="idnOj9-_htJ4sINFF72s-12" target="idnOj9-_htJ4sINFF72s-32">
          <mxGeometry relative="1" as="geometry" />
        </mxCell>
        <mxCell id="idnOj9-_htJ4sINFF72s-12" value="5: Quit" style="html=1;whiteSpace=wrap;" vertex="1" parent="WIyWlLk6GJQsqaUBKTNV-1">
          <mxGeometry x="160" y="-70" width="110" height="50" as="geometry" />
        </mxCell>
        <mxCell id="idnOj9-_htJ4sINFF72s-17" value="" style="edgeStyle=orthogonalEdgeStyle;rounded=0;orthogonalLoop=1;jettySize=auto;html=1;" edge="1" parent="WIyWlLk6GJQsqaUBKTNV-1" source="idnOj9-_htJ4sINFF72s-14" target="idnOj9-_htJ4sINFF72s-16">
          <mxGeometry relative="1" as="geometry" />
        </mxCell>
        <mxCell id="idnOj9-_htJ4sINFF72s-19" value="" style="edgeStyle=orthogonalEdgeStyle;rounded=0;orthogonalLoop=1;jettySize=auto;html=1;" edge="1" parent="WIyWlLk6GJQsqaUBKTNV-1" source="idnOj9-_htJ4sINFF72s-14" target="idnOj9-_htJ4sINFF72s-18">
          <mxGeometry relative="1" as="geometry" />
        </mxCell>
        <mxCell id="idnOj9-_htJ4sINFF72s-14" value="Print stored prompt" style="html=1;whiteSpace=wrap;" vertex="1" parent="WIyWlLk6GJQsqaUBKTNV-1">
          <mxGeometry x="540" y="60" width="110" height="50" as="geometry" />
        </mxCell>
        <mxCell id="idnOj9-_htJ4sINFF72s-16" value="Random order" style="html=1;whiteSpace=wrap;" vertex="1" parent="WIyWlLk6GJQsqaUBKTNV-1">
          <mxGeometry x="730" y="60" width="110" height="50" as="geometry" />
        </mxCell>
        <mxCell id="idnOj9-_htJ4sINFF72s-18" value="Optional: Add/Chose own prompt" style="html=1;whiteSpace=wrap;" vertex="1" parent="WIyWlLk6GJQsqaUBKTNV-1">
          <mxGeometry x="540" y="190" width="110" height="50" as="geometry" />
        </mxCell>
        <mxCell id="idnOj9-_htJ4sINFF72s-23" value="" style="edgeStyle=orthogonalEdgeStyle;rounded=0;orthogonalLoop=1;jettySize=auto;html=1;" edge="1" parent="WIyWlLk6GJQsqaUBKTNV-1" source="idnOj9-_htJ4sINFF72s-20" target="idnOj9-_htJ4sINFF72s-22">
          <mxGeometry relative="1" as="geometry" />
        </mxCell>
        <mxCell id="idnOj9-_htJ4sINFF72s-20" value="Responding to prompt" style="html=1;whiteSpace=wrap;" vertex="1" parent="WIyWlLk6GJQsqaUBKTNV-1">
          <mxGeometry x="350" y="-70" width="110" height="50" as="geometry" />
        </mxCell>
        <mxCell id="idnOj9-_htJ4sINFF72s-27" value="" style="edgeStyle=orthogonalEdgeStyle;rounded=0;orthogonalLoop=1;jettySize=auto;html=1;" edge="1" parent="WIyWlLk6GJQsqaUBKTNV-1" source="idnOj9-_htJ4sINFF72s-22" target="idnOj9-_htJ4sINFF72s-26">
          <mxGeometry relative="1" as="geometry" />
        </mxCell>
        <mxCell id="idnOj9-_htJ4sINFF72s-22" value="Input; stored in list" style="html=1;whiteSpace=wrap;" vertex="1" parent="WIyWlLk6GJQsqaUBKTNV-1">
          <mxGeometry x="350" y="-200" width="110" height="50" as="geometry" />
        </mxCell>
        <mxCell id="idnOj9-_htJ4sINFF72s-24" value="Read from file; print contents" style="html=1;whiteSpace=wrap;" vertex="1" parent="WIyWlLk6GJQsqaUBKTNV-1">
          <mxGeometry x="160" y="320" width="110" height="50" as="geometry" />
        </mxCell>
        <mxCell id="idnOj9-_htJ4sINFF72s-26" value="Include date, prompt, and response" style="html=1;whiteSpace=wrap;" vertex="1" parent="WIyWlLk6GJQsqaUBKTNV-1">
          <mxGeometry x="540" y="-200" width="110" height="50" as="geometry" />
        </mxCell>
        <mxCell id="idnOj9-_htJ4sINFF72s-31" value="" style="edgeStyle=orthogonalEdgeStyle;rounded=0;orthogonalLoop=1;jettySize=auto;html=1;" edge="1" parent="WIyWlLk6GJQsqaUBKTNV-1" source="idnOj9-_htJ4sINFF72s-28" target="idnOj9-_htJ4sINFF72s-30">
          <mxGeometry relative="1" as="geometry" />
        </mxCell>
        <mxCell id="idnOj9-_htJ4sINFF72s-56" value="" style="edgeStyle=orthogonalEdgeStyle;rounded=0;orthogonalLoop=1;jettySize=auto;html=1;" edge="1" parent="WIyWlLk6GJQsqaUBKTNV-1" source="idnOj9-_htJ4sINFF72s-28" target="idnOj9-_htJ4sINFF72s-55">
          <mxGeometry relative="1" as="geometry" />
        </mxCell>
        <mxCell id="idnOj9-_htJ4sINFF72s-28" value="User inputs name; save to or load file of the name" style="html=1;whiteSpace=wrap;" vertex="1" parent="WIyWlLk6GJQsqaUBKTNV-1">
          <mxGeometry x="-220" y="60" width="110" height="50" as="geometry" />
        </mxCell>
        <mxCell id="idnOj9-_htJ4sINFF72s-30" value="If no file, create file." style="html=1;whiteSpace=wrap;" vertex="1" parent="WIyWlLk6GJQsqaUBKTNV-1">
          <mxGeometry x="-410" y="60" width="110" height="50" as="geometry" />
        </mxCell>
        <mxCell id="idnOj9-_htJ4sINFF72s-32" value="Close the file; stop the loop." style="html=1;whiteSpace=wrap;" vertex="1" parent="WIyWlLk6GJQsqaUBKTNV-1">
          <mxGeometry x="160" y="-200" width="110" height="50" as="geometry" />
        </mxCell>
        <mxCell id="idnOj9-_htJ4sINFF72s-36" value="Entry" style="swimlane;fontStyle=1;align=center;verticalAlign=top;childLayout=stackLayout;horizontal=1;startSize=26;horizontalStack=0;resizeParent=1;resizeParentMax=0;resizeLast=0;collapsible=1;marginBottom=0;whiteSpace=wrap;html=1;" vertex="1" parent="WIyWlLk6GJQsqaUBKTNV-1">
          <mxGeometry x="800" y="320" width="160" height="112" as="geometry" />
        </mxCell>
        <mxCell id="idnOj9-_htJ4sINFF72s-41" value="String datePrompt" style="text;strokeColor=none;fillColor=none;align=left;verticalAlign=top;spacingLeft=4;spacingRight=4;overflow=hidden;rotatable=0;points=[[0,0.5],[1,0.5]];portConstraint=eastwest;whiteSpace=wrap;html=1;" vertex="1" parent="idnOj9-_htJ4sINFF72s-36">
          <mxGeometry y="26" width="160" height="26" as="geometry" />
        </mxCell>
        <mxCell id="idnOj9-_htJ4sINFF72s-54" value="string entry" style="text;strokeColor=none;fillColor=none;align=left;verticalAlign=top;spacingLeft=4;spacingRight=4;overflow=hidden;rotatable=0;points=[[0,0.5],[1,0.5]];portConstraint=eastwest;whiteSpace=wrap;html=1;" vertex="1" parent="idnOj9-_htJ4sINFF72s-36">
          <mxGeometry y="52" width="160" height="26" as="geometry" />
        </mxCell>
        <mxCell id="idnOj9-_htJ4sINFF72s-38" value="" style="line;strokeWidth=1;fillColor=none;align=left;verticalAlign=middle;spacingTop=-1;spacingLeft=3;spacingRight=3;rotatable=0;labelPosition=right;points=[];portConstraint=eastwest;strokeColor=inherit;" vertex="1" parent="idnOj9-_htJ4sINFF72s-36">
          <mxGeometry y="78" width="160" height="8" as="geometry" />
        </mxCell>
        <mxCell id="idnOj9-_htJ4sINFF72s-39" value="writeEntry(string)" style="text;strokeColor=none;fillColor=none;align=left;verticalAlign=top;spacingLeft=4;spacingRight=4;overflow=hidden;rotatable=0;points=[[0,0.5],[1,0.5]];portConstraint=eastwest;whiteSpace=wrap;html=1;" vertex="1" parent="idnOj9-_htJ4sINFF72s-36">
          <mxGeometry y="86" width="160" height="26" as="geometry" />
        </mxCell>
        <mxCell id="idnOj9-_htJ4sINFF72s-42" value="Classname" style="swimlane;fontStyle=1;align=center;verticalAlign=top;childLayout=stackLayout;horizontal=1;startSize=26;horizontalStack=0;resizeParent=1;resizeParentMax=0;resizeLast=0;collapsible=1;marginBottom=0;whiteSpace=wrap;html=1;" vertex="1" parent="WIyWlLk6GJQsqaUBKTNV-1">
          <mxGeometry x="440" y="490" width="160" height="86" as="geometry" />
        </mxCell>
        <mxCell id="idnOj9-_htJ4sINFF72s-43" value="+ field: type" style="text;strokeColor=none;fillColor=none;align=left;verticalAlign=top;spacingLeft=4;spacingRight=4;overflow=hidden;rotatable=0;points=[[0,0.5],[1,0.5]];portConstraint=eastwest;whiteSpace=wrap;html=1;" vertex="1" parent="idnOj9-_htJ4sINFF72s-42">
          <mxGeometry y="26" width="160" height="26" as="geometry" />
        </mxCell>
        <mxCell id="idnOj9-_htJ4sINFF72s-44" value="" style="line;strokeWidth=1;fillColor=none;align=left;verticalAlign=middle;spacingTop=-1;spacingLeft=3;spacingRight=3;rotatable=0;labelPosition=right;points=[];portConstraint=eastwest;strokeColor=inherit;" vertex="1" parent="idnOj9-_htJ4sINFF72s-42">
          <mxGeometry y="52" width="160" height="8" as="geometry" />
        </mxCell>
        <mxCell id="idnOj9-_htJ4sINFF72s-45" value="+ method(type): type" style="text;strokeColor=none;fillColor=none;align=left;verticalAlign=top;spacingLeft=4;spacingRight=4;overflow=hidden;rotatable=0;points=[[0,0.5],[1,0.5]];portConstraint=eastwest;whiteSpace=wrap;html=1;" vertex="1" parent="idnOj9-_htJ4sINFF72s-42">
          <mxGeometry y="60" width="160" height="26" as="geometry" />
        </mxCell>
        <mxCell id="idnOj9-_htJ4sINFF72s-47" value="" style="edgeStyle=orthogonalEdgeStyle;rounded=0;orthogonalLoop=1;jettySize=auto;html=1;" edge="1" parent="WIyWlLk6GJQsqaUBKTNV-1" source="idnOj9-_htJ4sINFF72s-46" target="idnOj9-_htJ4sINFF72s-39">
          <mxGeometry relative="1" as="geometry" />
        </mxCell>
        <mxCell id="idnOj9-_htJ4sINFF72s-46" value="Ask for the input; gather the date, combine" style="html=1;whiteSpace=wrap;" vertex="1" parent="WIyWlLk6GJQsqaUBKTNV-1">
          <mxGeometry x="980" y="526" width="110" height="50" as="geometry" />
        </mxCell>
        <mxCell id="idnOj9-_htJ4sINFF72s-49" value="" style="edgeStyle=orthogonalEdgeStyle;rounded=0;orthogonalLoop=1;jettySize=auto;html=1;" edge="1" parent="WIyWlLk6GJQsqaUBKTNV-1" source="idnOj9-_htJ4sINFF72s-48" target="idnOj9-_htJ4sINFF72s-35">
          <mxGeometry relative="1" as="geometry" />
        </mxCell>
        <mxCell id="idnOj9-_htJ4sINFF72s-48" value="Add entry to list; display prompt" style="html=1;whiteSpace=wrap;" vertex="1" parent="WIyWlLk6GJQsqaUBKTNV-1">
          <mxGeometry x="410" y="388" width="90" height="46" as="geometry" />
        </mxCell>
        <mxCell id="idnOj9-_htJ4sINFF72s-55" value="Clear previous contents of the file during saving process, then put in the currently stored entries." style="html=1;whiteSpace=wrap;" vertex="1" parent="WIyWlLk6GJQsqaUBKTNV-1">
          <mxGeometry x="-247.5" y="200" width="165" height="70" as="geometry" />
        </mxCell>
      </root>
    </mxGraphModel>
  </diagram>
</mxfile>
